HIERARCHY
ROOT Hips
{
	OFFSET	0	0	0
	CHANNELS 6  Xposition Yposition Zposition Xrotation Yrotation Zrotation
	JOINT Spine
	{
		OFFSET	0	7.00908	1.40711
		CHANNELS 3  Xrotation Yrotation Zrotation
		JOINT Spine1
		{
			OFFSET	0	11.9997	-2.14281
			CHANNELS 3  Xrotation Yrotation Zrotation
			JOINT Spine2
			{
				OFFSET	0	9.09621	0.974976
				CHANNELS 3  Xrotation Yrotation Zrotation
				JOINT Spine3
				{
					OFFSET	0	10.8855	3.23564
					CHANNELS 3  Xrotation Yrotation Zrotation
					JOINT Spine4
					{
						OFFSET	0	16.1139	-1.64996
						CHANNELS 3  Xrotation Yrotation Zrotation
						JOINT Neck
						{
							OFFSET	0	7.69267	-5.38915
							CHANNELS 3  Xrotation Yrotation Zrotation
							JOINT Head
							{
								OFFSET	0	9.23549	-2.76422
								CHANNELS 3  Xrotation Yrotation Zrotation
								End Site
								{
									OFFSET	0	19.2638	-0.93212
								}
							}
						}
					}
					JOINT LeftShoulder
					{
						OFFSET	-4.62846	19.5852	-9.23549
						CHANNELS 3  Xrotation Yrotation Zrotation
						JOINT LeftArm
						{
							OFFSET	-10.1082	-2.76422	3.54636
							CHANNELS 3  Xrotation Yrotation Zrotation
							JOINT LeftForeArm
							{
								OFFSET	-30.9178	-1.41114	2.20688
								CHANNELS 3  Xrotation Yrotation Zrotation
								JOINT LeftHand
								{
									OFFSET	-25.989	-1.79599	1.85507
									CHANNELS 3  Xrotation Yrotation Zrotation
									End Site
									{
										OFFSET	-9.4847	-0.655447	0.676963
									}
								}
							}
						}
					}
					JOINT RightShoulder
					{
						OFFSET	4.62846	19.5852	-9.23549
						CHANNELS 3  Xrotation Yrotation Zrotation
						JOINT RightArm
						{
							OFFSET	10.1082	-2.76422	3.54636
							CHANNELS 3  Xrotation Yrotation Zrotation
							JOINT RightForeArm
							{
								OFFSET	30.9178	-1.41114	2.20688
								CHANNELS 3  Xrotation Yrotation Zrotation
								JOINT RightHand
								{
									OFFSET	25.989	-1.79599	1.85507
									CHANNELS 3  Xrotation Yrotation Zrotation
									End Site
									{
										OFFSET	9.4847	-0.655447	0.676963
									}
								}
							}
						}
					}
				}
			}
		}
	}
	JOINT LeftUpLeg
	{
		OFFSET	-9.51492	-3.50454	-0.703555
		CHANNELS 3  Xrotation Yrotation Zrotation
		JOINT LeftLeg
		{
			OFFSET	-2.15663	-42.2584	-0.660591
			CHANNELS 3  Xrotation Yrotation Zrotation
			JOINT LeftFoot
			{
				OFFSET	-2.11138	-38.9194	3.34707
				CHANNELS 3  Xrotation Yrotation Zrotation
				JOINT LeftToeBase
				{
					OFFSET	0	-4.8091	-12.773
					CHANNELS 3  Xrotation Yrotation Zrotation
					End Site
					{
						OFFSET	0	-1.92364	-7.69456
					}
				}
			}
		}
	}
	JOINT RightUpLeg
	{
		OFFSET	9.51492	-3.50454	-0.703555
		CHANNELS 3  Xrotation Yrotation Zrotation
		JOINT RightLeg
		{
			OFFSET	2.15663	-42.2584	-0.660591
			CHANNELS 3  Xrotation Yrotation Zrotation
			JOINT RightFoot
			{
				OFFSET	2.11138	-38.9194	3.34707
				CHANNELS 3  Xrotation Yrotation Zrotation
				JOINT RightToeBase
				{
					OFFSET	0	-4.8091	-12.773
					CHANNELS 3  Xrotation Yrotation Zrotation
					End Site
					{
						OFFSET	0	-1.92364	-7.69456
					}
				}
			}
		}
	}
}
MOTION
Frames: 11
Frame Time: 0.020408
 19.0776 89.2916 100.724 50.5033 100.289 -53.6942 6.88764e-06 -0.000269595 1.46348 3.21294 -0.000538877 2.43913 3.93247 -0.00161663 2.43913 4.30039 -0.000269595 1.46348 176.035 -179.966 -179.513 165.642 -173.358 176.089 175.614 -169.741 177.788 1.42961 -21.2817 3.08877 179.424 -179.806 -117.672 93.9553 -75.6561 92.3635 -0 -11.1016 -9.54268 176.821 -172.347 -174.331 28.4468 42.8763 -79.5705 23.1914 73.1957 -20.6245 -0 -9.3814 -22.8325 27.7088 0.96844 3.36387 156.8 161.184 -179.453 5.89835 -0.170464 -0.0559772 174.196 180 -180 18.4518 4.32193 7.04208 131.207 -160.185 179.849 5.38832 -0.0142396 -11.4859 175.911 180 -180
 19.3702 89.2671 100.336 52.5 99.702 -55.7504 4.03392e-05 -0.00158948 1.45379 3.18126 -0.00317713 2.42299 3.90268 -0.0095314 2.42299 4.28425 -0.00158948 1.45379 176.012 -179.966 -179.517 165.607 -173.715 176.381 175.611 -170.238 177.922 1.47514 -21.4873 3.18843 179.831 -179.982 -116.96 93.0605 -75.4834 91.4394 -0 -10.9758 -9.8516 176.965 -172.73 -174.564 27.4503 43.8316 -79.457 24.128 73.4259 -21.4898 -0 -9.49285 -23.4083 27.5852 1.33688 3.04431 156.897 161.049 -179.548 5.62339 -0.0876551 0.0902713 174.175 180 -180 17.6754 3.21072 7.48925 131.637 -159.871 179.808 5.46484 -0.0315423 -11.4759 175.916 180 -180
 19.7539 89.2545 99.7037 52.2964 99.4817 -55.511 8.27375e-05 -0.00328761 1.44163 3.14883 -0.00657152 2.40271 3.8744 -0.0197146 2.40271 4.27417 -0.00328761 1.44163 175.975 -179.966 -179.521 165.527 -174.19 176.693 175.596 -170.94 178.084 1.44743 -21.3062 3.12745 0.456867 0.766692 63.3808 91.4225 -75.3445 89.6303 -0 -10.8633 -10.2926 176.997 -173.134 -174.597 26.1762 44.9112 -78.9411 26.1391 74.0637 -23.5502 -0 -9.50308 -24.053 27.564 1.55738 2.54289 157.193 161.149 -179.56 5.05662 -0.0438925 0.26558 174.151 180 -180 17.0746 2.1061 7.86257 132.603 -159.606 179.855 6.35344 -0.0179282 -11.4803 175.92 180 -180
 20.1369 89.2401 99.2228 54.8606 99.091 -58.06 0.000377007 -0.0151496 1.42555 3.13075 -0.0302825 2.37591 3.86003 -0.0908474 2.37592 4.26703 -0.0151496 1.42555 175.956 -179.966 -179.526 165.487 -174.777 177.076 175.595 -171.822 178.287 1.4406 -20.8224 3.10976 1.01651 1.78951 63.8048 90.7483 -75.1994 89.0005 -0 -10.8027 -10.7066 177.013 -173.311 -174.614 25.1011 45.5653 -78.0731 28.8177 74.9584 -26.2482 -0 -9.50129 -24.5903 27.6221 1.56683 2.04743 157.456 161.223 -179.52 4.56464 0.0910731 0.450798 174.123 180 -180 15.9123 1.45063 7.78429 133.777 -159.365 179.843 7.25523 -0.0184316 -11.4763 175.924 180 -180
 20.9457 89.1841 98.1094 52.5346 99.4231 -55.7994 0.000363369 -0.0142553 1.46016 3.10734 -0.0284941 2.4336 3.86219 -0.0854822 2.43361 4.3284 -0.0142553 1.46016 175.769 -179.964 -179.515 164.969 -175.355 177.351 175.449 -172.69 178.451 1.33913 -20.1238 2.88628 1.71661 2.91202 63.9646 91.6884 -75.0549 90.0154 -0 -10.7998 -11.0833 177.115 -173.732 -174.773 24.0356 46.2947 -77.5001 31.4841 75.701 -28.9988 -0 -9.46615 -25.1322 28.1586 1.37757 1.72086 158.051 161.485 -179.72 3.34476 0.0835038 0.729792 174.095 180 -180 15.451 0.784245 7.36226 135.482 -159.136 179.897 10.0365 -0.0280223 -11.4715 175.929 180 -180
 21.8503 89.0133 97.2638 54.8675 99.3648 -58.2259 0.000683537 -0.0270917 1.4453 3.10204 -0.0541527 2.40883 3.87732 -0.162458 2.40883 4.37937 -0.0270917 1.4453 175.638 -179.963 -179.52 164.597 -175.904 177.549 175.347 -173.58 178.602 1.16333 -19.958 2.50617 2.92841 3.91471 63.6111 91.9055 -74.9016 90.238 -0 -10.758 -11.5098 177.621 -174.434 -175.658 23.7629 46.8328 -77.9174 33.6292 76.161 -31.0685 -0 -9.39555 -25.528 28.8703 1.12254 1.3781 158.396 161.648 -179.888 2.42385 0.255053 1.03245 174.06 180 -180 14.8663 0.255447 7.12339 138.099 -158.876 179.829 13.0448 -0.0457826 -11.4651 175.936 180 -180
 22.3292 88.9215 96.3331 55.6759 99.9943 -59.3046 0.000637019 -0.0244676 1.49137 3.09659 -0.0489057 2.48562 3.85703 -0.146717 2.48563 4.33221 -0.0244676 1.49137 175.738 -179.963 -179.504 164.885 -176.653 178.075 175.444 -174.736 178.88 0.908778 -20.4037 1.95949 4.18235 4.40768 63.2076 93.4987 -74.7298 91.9891 -0 -10.7045 -11.7671 178.212 -175.033 -176.717 23.458 46.7314 -77.6868 32.9892 75.8654 -30.3249 -0 -9.40176 -25.658 29.6078 0.681841 1.17117 158.954 161.938 -179.795 1.58785 0.354581 1.34663 174.026 180 -180 14.2928 -0.230589 6.87086 141.367 -158.634 179.856 15.6903 -0.060937 -11.4595 175.942 180 -180
 22.9564 88.734 95.616 54.8381 100.308 -58.6923 0.000969362 -0.0366918 1.51335 3.1004 -0.0733381 2.52225 3.83515 -0.220014 2.52227 4.25061 -0.0366918 1.51335 175.935 -179.964 -179.497 165.439 -177.493 178.567 175.62 -176.089 179.173 0.72352 -20.9005 1.56154 5.23529 4.77851 62.912 93.6837 -74.5778 92.1676 -0 -10.5494 -12.0287 178.739 -175.517 -177.673 23.2314 46.5937 -77.4415 32.2068 75.5199 -29.5547 -0 -9.41124 -25.7512 30.2479 0.224924 1.21306 159.19 162.169 -179.902 0.864294 0.420456 1.5869 173.993 180 -180 13.53 -0.7758 6.51386 144.635 -158.428 179.837 18.2695 -0.0811155 -11.4445 175.948 180 -180
 23.6291 88.5614 94.4809 51.6962 101.009 -55.7994 0.000936176 -0.0344408 1.55704 3.11696 -0.0688363 2.59507 3.84532 -0.206509 2.59509 4.24319 -0.0344408 1.55704 175.983 -179.964 -179.482 165.556 -178.697 178.87 175.665 -178.205 179.497 0.675133 -21.5701 1.45893 5.51129 5.02021 63.2529 92.9781 -74.4252 91.3261 -0 -10.3371 -12.3212 179.146 -175.839 -178.419 23.18 46.3609 -77.1877 32.1835 75.3868 -29.5903 -0 -9.33348 -25.7111 30.8475 -0.437091 1.06938 159.913 162.493 -179.855 179.634 179.579 -178.085 173.957 180 -180 12.4857 -1.27264 5.85665 148.251 -158.214 179.838 20.6755 -0.131414 -11.4387 175.953 180 -180
 24.0443 88.451 93.629 48.2506 101.976 -52.3815 0.000848708 -0.0305909 1.5892 3.11553 -0.0611399 2.64867 3.8477 -0.18342 2.64868 4.25552 -0.0305909 1.5892 175.952 -179.963 -179.472 165.467 -179.986 178.924 175.641 179.376 179.789 0.634756 -22.401 1.37355 5.80493 5.09579 63.6208 93.1215 -74.2553 91.3926 -0 -10.1659 -12.5546 179.358 -176.104 -178.809 22.9788 46.2257 -77.0464 32.4275 75.3156 -29.8497 -0 -9.22763 -25.6861 31.348 -1.16652 0.978659 160.737 162.919 -179.791 178.604 179.635 -177.867 173.918 180 -180 11.2524 -1.54824 5.28027 151.277 -158.462 179.908 22.7049 -0.119889 -11.4331 175.956 180 -180
 24.3488 88.504 93.0547 45.7115 102.433 -49.8098 0.000227909 -0.00942475 1.38526 3.1104 -0.0188397 2.30876 3.84214 -0.0565191 2.30876 4.26399 -0.00942475 1.38526 175.925 -179.967 -179.539 165.399 178.671 178.76 175.611 176.723 -179.949 0.740773 -23.0911 1.60459 5.76294 5.20628 64.0624 92.0718 -74.1433 90.3546 -0 -9.9774 -12.7373 179.52 -176.292 -179.108 22.6856 46.131 -77.0465 32.693 75.2524 -30.0936 -0 -9.15294 -25.6122 31.2261 -1.8169 0.922012 161.731 163.219 -179.79 177.632 179.571 -177.772 173.888 180 -180 10.8041 -2.31423 4.53292 152.676 -158.559 -179.443 25.1367 -0.265076 -9.89484 176.09 180 -180
